<?xml version="1.0" encoding="utf-8"?>
<svg version="1.0" xmlns="http://www.w3.org/2000/svg" width="500.000000pt" height="500.000000pt" viewBox="0 0 500.000000 500.000000" preserveAspectRatio="xMidYMid meet">
  <g transform="translate(0.000000,500.000000) scale(0.100000,-0.100000)" fill="#000000" stroke="none">
    <path d="M840 3501 c-180 -55 -296 -269 -261 -484 28 -173 152 -317 288 -333 30 -3 33 -2 13 4 -67 23 -132 77 -172 142 -64 106 -82 301 -41 435 39 125 117 212 210 234 26 6 30 9 13 9 -14 0 -36 -3 -50 -7z" style="fill: rgb(255, 255, 255);"/>
    <path d="M985 3503 c88 -19 134 -58 142 -122 8 -62 -12 -96 -104 -172 -89 -75 -113 -109 -113 -161 0 -39 24 -78 48 -78 12 0 13 3 4 12 -7 7 -12 24 -12 40 0 28 17 49 133 156 69 65 90 102 91 163 2 83 -75 156 -172 164 -20 1 -28 1 -17 -2z" style="fill: rgb(255, 255, 255);"/>
    <path d="M4372 3420 c-4 -67 -35 -128 -74 -145 -28 -12 -29 -14 -10 -15 l22 0 0 -262 c0 -298 3 -311 62 -316 26 -2 42 3 60 20 13 13 16 17 7 10 -10 -8 -26 -12 -36 -10 -17 3 -18 26 -23 383 -3 209 -7 360 -8 335z" style="fill: rgb(255, 255, 255);"/>
    <path d="M2540 3399 c0 -50 -30 -101 -70 -121 -28 -14 -31 -18 -13 -18 22 0 22 0 25 -267 3 -304 5 -313 67 -313 28 0 43 7 62 27 17 20 18 23 3 10 -26 -21 -50 -22 -58 -1 -3 9 -6 171 -6 361 1 190 -2 348 -5 351 -3 3 -5 -10 -5 -29z" style="fill: rgb(255, 255, 255);"/>
    <path d="M1501 3271 c88 -17 132 -52 171 -136 20 -43 23 -66 23 -160 0 -98 -3 -116 -26 -166 -28 -58 -76 -104 -126 -119 -25 -7 -25 -8 -5 -9 68 -3 152 61 194 147 29 59 33 75 32 147 -1 48 -8 98 -17 123 -39 102 -125 168 -234 176 -55 5 -56 5 -12 -3z" style="fill: rgb(255, 255, 255);"/>
    <path d="M2125 3267 c66 -18 89 -33 114 -78 20 -34 21 -54 22 -231 1 -210 -5 -240 -50 -257 -19 -7 5 -9 89 -9 63 0 105 3 92 5 -49 10 -57 41 -60 253 -2 154 -6 203 -19 233 -23 54 -79 84 -168 91 l-70 6 50 -13z" style="fill: rgb(255, 255, 255);"/>
    <path d="M2999 3269 c24 -5 52 -16 62 -25 25 -23 24 -69 -3 -96 -20 -20 -20 -22 -3 -35 27 -19 43 -16 70 12 69 68 -6 157 -130 154 l-40 -1 44 -9z" style="fill: rgb(255, 255, 255);"/>
    <path d="M3423 3273 c15 -2 37 -2 50 0 12 2 0 4 -28 4 -27 0 -38 -2 -22 -4z" style="fill: rgb(255, 255, 255);"/>
    <path d="M3948 3273 c12 -2 32 -2 45 0 12 2 2 4 -23 4 -25 0 -35 -2 -22 -4z" style="fill: rgb(255, 255, 255);"/>
    <path d="M1382 3255 c-56 -24 -98 -63 -127 -117 -37 -68 -47 -197 -21 -276 30 -90 137 -183 207 -181 15 0 18 3 9 6 -55 20 -85 41 -110 79 -105 151 -63 423 74 485 25 11 33 18 21 18 -11 0 -35 -6 -53 -14z" style="fill: rgb(255, 255, 255);"/>
    <path d="M1895 3260 c-44 -3 -72 -7 -63 -8 10 -1 26 -14 35 -29 16 -24 18 -53 18 -248 0 -192 -2 -224 -17 -247 -10 -15 -28 -29 -40 -31 -13 -2 29 -5 92 -5 106 -1 113 0 83 13 -43 19 -47 44 -48 315 l0 225 45 12 c43 11 43 11 10 10 -19 0 -71 -4 -115 -7z" style="fill: rgb(255, 255, 255);"/>
    <path d="M2740 3263 c-83 -3 -92 -5 -70 -16 41 -20 49 -65 49 -272 0 -207 -8 -251 -49 -272 -22 -11 -10 -13 85 -13 95 0 107 2 85 13 -46 23 -50 45 -50 304 l0 242 43 5 c110 14 100 15 -93 9z" style="fill: rgb(255, 255, 255);"/>
    <path d="M3315 3255 c-66 -23 -105 -89 -77 -131 14 -21 47 -32 70 -23 25 10 29 34 7 43 -8 3 -15 18 -15 34 0 31 29 64 70 81 41 16 -7 13 -55 -4z" style="fill: rgb(255, 255, 255);"/>
    <path d="M3535 3255 c39 -21 55 -43 55 -75 0 -32 -23 -55 -76 -75 l-39 -15 35 6 c19 4 57 14 85 23 83 27 85 85 5 126 -14 7 -41 16 -60 19 l-35 7 30 -16z" style="fill: rgb(255, 255, 255);"/>
    <path d="M3855 3256 c-106 -47 -113 -185 -13 -246 18 -11 69 -32 113 -46 121 -40 154 -60 172 -101 13 -32 13 -40 -2 -79 -17 -45 -47 -72 -100 -93 -28 -10 -27 -11 14 -6 127 16 200 135 138 226 -33 49 -75 73 -197 114 -112 37 -153 65 -164 111 -10 39 20 90 67 113 47 23 22 29 -28 7z" style="fill: rgb(255, 255, 255);"/>
    <path d="M4061 3251 c34 -19 67 -52 96 -97 11 -16 12 -13 10 26 -2 41 -5 47 -37 62 -20 10 -51 20 -70 23 l-35 6 36 -20z" style="fill: rgb(255, 255, 255);"/>
    <path d="M3350 3059 c-110 -38 -160 -103 -160 -207 0 -105 67 -172 172 -172 65 0 100 14 139 57 29 30 63 92 56 99 -2 3 -10 -9 -17 -26 -7 -16 -30 -45 -51 -64 -118 -108 -260 -11 -229 155 13 69 51 116 120 152 62 31 49 34 -30 6z" style="fill: rgb(255, 255, 255);"/>
    <path d="M3587 2914 c5 -202 15 -225 101 -223 32 0 34 2 15 9 -36 15 -43 43 -43 175 0 146 -13 195 -53 195 l-24 0 4 -156z" style="fill: rgb(255, 255, 255);"/>
    <path d="M1147 2790 c-22 -37 -94 -87 -144 -100 -35 -9 -33 -9 22 -6 33 2 79 9 103 16 l42 13 0 54 c0 29 -1 53 -3 53 -1 0 -11 -13 -20 -30z" style="fill: rgb(255, 255, 255);"/>
    <path d="M3761 2767 c-1 -45 1 -49 33 -62 19 -8 54 -17 78 -20 l43 -6 -42 19 c-41 20 -92 68 -105 100 -4 10 -7 -4 -7 -31z" style="fill: rgb(255, 255, 255);"/>
    <path d="M1417 2516 c25 -12 33 -22 38 -53 9 -54 13 -62 14 -28 1 18 5 25 10 20 6 -6 75 -151 155 -323 80 -172 151 -323 157 -334 11 -20 13 -18 30 27 11 29 15 53 10 59 -5 6 -76 153 -159 326 l-149 315 -69 2 c-67 3 -68 2 -37 -11z" style="fill: rgb(255, 255, 255);"/>
    <path d="M2075 2520 c-4 -6 -6 -172 -5 -369 1 -385 -1 -402 -49 -420 -19 -7 2 -9 84 -10 73 0 103 3 88 9 -46 19 -48 34 -48 385 0 182 3 342 8 357 4 15 20 34 35 42 26 15 25 15 -40 16 -37 0 -70 -5 -73 -10z" style="fill: rgb(255, 255, 255);"/>
    <path d="M2930 2429 c0 -50 -30 -101 -70 -121 -28 -14 -31 -18 -13 -18 22 0 22 0 25 -267 3 -304 5 -313 67 -313 28 0 43 7 62 27 17 20 18 23 3 10 -26 -21 -50 -22 -58 -1 -3 9 -6 171 -6 361 1 190 -2 348 -5 351 -3 3 -5 -10 -5 -29z" style="fill: rgb(255, 255, 255);"/>
    <path d="M2498 2303 c12 -2 32 -2 45 0 12 2 2 4 -23 4 -25 0 -35 -2 -22 -4z" style="fill: rgb(255, 255, 255);"/>
    <path d="M3313 2303 c9 -2 25 -2 35 0 9 3 1 5 -18 5 -19 0 -27 -2 -17 -5z" style="fill: rgb(255, 255, 255);"/>
    <path d="M2395 2288 c-52 -18 -85 -57 -85 -100 0 -29 6 -41 25 -54 23 -15 27 -15 50 0 30 20 30 21 4 47 -32 32 -11 81 46 105 37 16 5 18 -40 2z" style="fill: rgb(255, 255, 255);"/>
    <path d="M2607 2285 c73 -31 80 -99 15 -135 l-37 -21 40 6 c62 10 99 36 103 72 3 34 -24 60 -87 81 -47 17 -73 14 -34 -3z" style="fill: rgb(255, 255, 255);"/>
    <path d="M3212 2279 c-166 -82 -205 -335 -75 -489 68 -82 221 -106 324 -52 51 26 119 99 119 125 0 7 -9 -2 -19 -19 -57 -94 -183 -139 -279 -98 -80 33 -135 110 -150 210 -23 143 30 283 122 325 26 12 34 19 21 19 -11 0 -39 -10 -63 -21z" style="fill: rgb(255, 255, 255);"/>
    <path d="M3416 2281 c72 -33 110 -104 102 -192 -9 -91 -69 -124 -139 -76 -19 13 -52 36 -73 50 -47 33 -114 37 -139 9 -23 -26 -21 -29 12 -24 18 2 55 -8 101 -28 123 -54 227 -51 269 9 27 37 36 100 22 144 -15 45 -78 103 -128 116 -59 17 -72 13 -27 -8z" style="fill: rgb(255, 255, 255);"/>
    <path d="M2558 2123 c7 -3 16 -2 19 1 4 3 -2 6 -13 5 -11 0 -14 -3 -6 -6z" style="fill: rgb(255, 255, 255);"/>
    <path d="M2443 2095 c-66 -20 -129 -62 -153 -99 -50 -81 -32 -200 38 -254 31 -24 44 -27 112 -27 69 0 80 3 113 28 32 24 88 111 87 134 -1 4 -12 -13 -25 -39 -66 -127 -216 -145 -270 -33 -13 29 -16 53 -12 103 6 84 41 136 117 174 60 30 58 34 -7 13z" style="fill: rgb(255, 255, 255);"/>
    <path d="M2657 1978 c1 -68 4 -143 8 -167 9 -57 42 -91 90 -91 l36 0 -28 24 c-28 24 -28 25 -33 174 -5 158 -12 182 -54 182 -20 0 -21 -4 -19 -122z" style="fill: rgb(255, 255, 255);"/>
    <path d="M1467 1871 c-8 -101 -22 -137 -59 -144 -13 -2 29 -5 92 -5 77 0 106 2 87 8 -16 5 -35 14 -43 21 -28 23 -55 90 -63 153 l-7 61 -7 -94z" style="fill: rgb(255, 255, 255);"/>
    <path d="M2040 1301 c-111 -36 -170 -115 -170 -229 0 -135 98 -232 234 -232 60 0 108 14 149 43 24 16 27 22 15 33 -11 11 -21 10 -62 -11 -186 -94 -373 106 -261 277 58 88 197 110 287 46 14 -10 21 -10 34 4 15 15 13 18 -30 43 -50 29 -147 42 -196 26z" style="fill: rgb(255, 255, 255);"/>
    <path d="M2840 1075 c0 -228 1 -235 20 -235 19 0 20 7 20 100 l0 100 125 0 c118 0 125 1 125 20 0 19 -7 20 -125 20 l-126 0 3 93 3 92 133 3 c124 2 132 4 132 22 0 19 -7 20 -155 20 l-155 0 0 -235z" style="fill: rgb(255, 255, 255);"/>
    <path d="M2320 905 c0 -227 1 -235 20 -235 19 0 20 8 22 186 l3 185 90 -155 c53 -93 95 -155 104 -153 7 1 52 69 100 150 l86 148 3 -180 2 -181 25 0 25 0 0 235 c0 302 1 301 -136 65 -54 -93 -101 -170 -105 -170 -3 0 -44 64 -90 143 -102 176 -117 197 -135 197 -12 0 -14 -38 -14 -235z" style="fill: rgb(255, 255, 255);"/>
  </g>
</svg>